<svg width="90" height="90" viewBox="0 0 83 83" fill="none" xmlns="http://www.w3.org/2000/svg">
<path d="M77.2322 5.01326C75.9726 3.78098 74.7042 2.55782 73.4269 1.34389C71.7867 -0.21179 70.1967 -0.322107 68.9544 0.822248C67.4237 2.22725 66.0348 3.77096 64.4699 5.36964L77.0324 17.6665C78.6444 16.0197 80.2524 14.5187 81.6876 12.854C82.7026 11.6811 82.3796 10.1516 80.9736 8.73651C79.7357 7.48413 78.4885 6.24304 77.2322 5.01326ZM64.9207 8.03273C64.0402 10.1794 62.2243 9.92565 60.2179 9.42437C58.9283 9.10424 57.61 8.91455 56.2829 8.85816C48.2656 8.57344 41.9762 10.8943 38.592 17.5603C37.9863 18.7516 38.1733 19.666 39.5304 20.9667C46.5115 27.6672 53.3929 34.4696 60.3076 41.238C64.0114 44.8636 64.5617 44.959 67.8121 42.5058C68.1085 42.2684 68.3874 42.01 68.6467 41.7325C70.9339 39.2752 72.5633 36.2797 73.3841 33.0233C74.205 29.7669 74.1907 26.3547 73.3426 23.1027C72.9219 20.8624 71.7272 18.3244 74.2328 17.1479L64.9207 8.03273ZM61.3889 12.8313C61.5092 12.9389 61.6228 13.0538 61.7291 13.1753C58.2929 13.1866 54.8669 13.5416 51.5024 14.2351C48.601 15.4566 45.8562 17.02 43.3259 18.892C45.5 12.9861 57.6466 9.51153 61.3889 12.8313ZM37.5505 20.8239L15.343 43.5111L40.0714 67.7165L62.2788 45.0293L37.5505 20.8239ZM38.3014 26.202L38.8826 26.793C38.6247 27.3109 38.3108 27.7988 37.9466 28.2482C33.0113 33.324 28.0478 38.3777 23.0928 43.4342C22.8582 43.7333 22.5716 43.9877 22.2467 44.1851C22.0098 44.2967 21.6216 44.1661 21.2992 44.1441C21.2422 43.8224 21.0498 43.4124 21.1566 43.1956C21.3933 42.8197 21.6861 42.4823 22.025 42.1951C26.8914 37.2236 31.7465 32.2466 36.6327 27.2945C37.149 26.8727 37.7083 26.5065 38.3014 26.202ZM38.2873 68.0368C34.3583 64.3294 30.5316 60.5006 26.6691 56.7197L15.9571 46.2342C13.2876 43.6211 12.1356 43.3523 10.0012 45.3798C6.98012 48.2607 4.05913 51.2448 1.24341 54.3268C-0.228851 55.9386 -0.098589 58.2602 1.48204 60.4833C2.97146 62.5729 4.54924 65.0371 7.53229 64.688C8.81957 64.5408 9.44695 65.2491 9.57969 66.5647C9.79589 68.8042 12.7787 73.3308 14.7702 73.5072C18.0885 73.8021 18.5877 75.0609 19.5247 78.1002C19.8759 79.0551 20.4273 79.9241 21.1421 80.6486C21.8568 81.3732 22.7182 81.9364 23.6683 82.3006C24.6184 82.6647 25.6352 82.8212 26.6502 82.7595C27.6652 82.6979 28.6549 82.4195 29.5526 81.9432C32.6158 79.1107 35.5323 76.1236 38.2908 72.9936C38.6975 72.4161 39.0161 71.7811 39.236 71.1097C39.7309 70.0372 39.4742 69.1543 38.2873 68.0368ZM13.5955 48.7374C13.5534 49.2226 13.6897 49.8657 13.4296 50.1541C12.2652 51.4854 10.9903 52.7198 9.74951 53.9874C8.55577 55.2069 7.38483 56.4599 6.13441 57.6239C5.87934 57.8618 5.30102 57.7667 4.87019 57.827C4.8646 57.3395 4.64087 56.644 4.879 56.3951C7.2591 53.8588 9.69043 51.3712 12.1715 48.9337C12.4402 48.6648 13.1142 48.7926 13.5955 48.7374Z" fill="#D9D9D9"/>
</svg>
