<svg width="153" height="210" viewBox="0 0 153 210" fill="none" xmlns="http://www.w3.org/2000/svg">
<path d="M5.61047 112.732C4.95141 118.056 4.45829 123.399 4.06777 128.664C3.67725 133.929 3.3967 139.11 3.12262 144.127C2.84979 149.139 2.58955 153.984 2.22765 158.565C1.86091 163.144 1.39126 167.464 0.656305 171.395C0.288827 173.36 -0.145551 175.226 -0.67082 176.964C-0.934084 177.836 -1.21881 178.671 -1.52626 179.474C-1.82005 180.244 -2.13656 180.983 -2.47811 181.68L-1.96534 181.813C-1.62274 181.133 -1.29802 180.422 -1.00086 179.678C-0.681221 178.867 -0.381781 178.016 -0.106318 177.137C0.439764 175.378 0.899807 173.494 1.29167 171.514C2.07057 167.553 2.58164 163.213 2.99212 158.624C3.39776 154.034 3.70533 149.186 4.0242 144.176C4.65586 134.159 5.36935 123.471 6.77181 112.874C7.46579 107.574 8.32318 102.301 9.37577 97.1514C10.4271 92.0064 11.6652 86.9773 13.0792 82.1851C14.5025 77.4366 16.5006 73.0395 18.8765 69.1747C21.2513 65.3147 24.0003 61.981 26.9013 59.3327C29.8 56.6734 32.8482 54.7092 35.7393 53.4272C36.4578 53.1081 37.176 52.8303 37.8695 52.5875C38.5666 52.3507 39.2452 52.1452 39.904 51.9759C41.2217 51.6374 42.4555 51.4423 43.5793 51.3322C45.8209 51.1156 47.5944 51.2678 48.7896 51.4191C49.0912 51.4512 49.3429 51.4961 49.5657 51.5335C49.7848 51.5647 49.9856 51.6067 50.1442 51.6326C50.299 51.6729 50.4263 51.6802 50.515 51.6569C50.6025 51.6383 50.6513 51.6097 50.6513 51.6097L50.969 49.8948C50.969 49.8948 50.9342 49.8496 50.8583 49.804C50.7849 49.7487 50.6652 49.7124 50.5054 49.6914C50.3481 49.6607 50.1508 49.6248 49.8953 49.5944C49.6471 49.5555 49.3493 49.5089 49.032 49.4779C47.7385 49.3268 45.8134 49.1817 43.3846 49.4425C42.1782 49.5724 40.8434 49.798 39.4284 50.1731C38.7233 50.3614 37.9924 50.5893 37.2526 50.8512C36.5103 51.1227 35.7495 51.4255 34.987 51.7744C31.9226 53.1662 28.7275 55.2782 25.7291 58.0819C22.732 60.8809 19.9282 64.3656 17.5266 68.3683C15.1286 72.3772 13.1254 76.9125 11.7275 81.8019C10.3347 86.6512 9.12775 91.7195 8.11114 96.9097C7.09452 102.1 6.26953 107.407 5.60921 112.737L5.61047 112.732Z" fill="#61863A"/>
<path d="M5.81728 113.126C5.15822 118.45 4.66383 123.797 4.27457 129.058C3.88406 134.324 3.60224 139.509 3.32942 144.521C3.0566 149.533 2.79635 154.378 2.43445 158.959C2.06771 163.538 1.59807 167.858 0.863118 171.789C0.495641 173.754 0.059994 175.625 -0.460437 177.364C-0.723701 178.236 -1.00842 179.071 -1.31587 179.874C-1.5649 180.532 -1.83917 181.169 -2.12165 181.777L-1.59921 181.913C-1.3121 181.327 -1.03804 180.711 -0.785641 180.079C-0.466 179.269 -0.166553 178.417 0.10891 177.538C0.661088 175.776 1.11502 173.895 1.50689 171.915C2.28579 167.955 2.79686 163.614 3.20734 159.026C3.61782 154.437 3.92055 149.588 4.23942 144.577C4.87108 134.56 5.58456 123.872 6.98703 113.276C7.68101 107.976 8.5384 102.703 9.59099 97.5528C10.6423 92.4078 11.8804 87.3787 13.2932 82.5913C14.7164 77.8429 16.7158 73.4409 19.0905 69.5809C21.4652 65.721 24.213 62.3921 27.1152 59.7389C30.014 57.0797 33.0622 55.1154 35.9533 53.8334C36.6718 53.5144 37.3899 53.2366 38.0834 52.9937C38.7805 52.7569 39.4591 52.5515 40.1179 52.3822C41.4356 52.0437 42.6694 51.8486 43.7933 51.7385C46.0348 51.5219 47.8084 51.674 49.0036 51.8253C49.3051 51.8574 49.5569 51.9024 49.7796 51.9397C49.9988 51.971 50.1996 52.013 50.3582 52.0388C50.5142 52.0743 50.6402 52.0865 50.729 52.0631C50.8164 52.0446 50.8652 52.016 50.8652 52.016L51.1829 50.3011C51.1829 50.3011 51.1482 50.2559 51.0723 50.2102C50.9989 50.155 50.8792 50.1186 50.7194 50.0976C50.5608 50.0718 50.3648 50.0311 50.1092 50.0006C49.8611 49.9618 49.5633 49.9152 49.2459 49.8842C47.9525 49.7331 46.0273 49.5879 43.5986 49.8487C42.3921 49.9786 41.0574 50.2042 39.6424 50.5794C38.9373 50.7676 38.2111 50.9968 37.4665 51.2574C36.7242 51.5289 35.9647 51.8269 35.2022 52.1758C32.1366 53.5725 28.9427 55.6796 25.9443 58.4833C22.9472 61.2823 20.1434 64.767 17.7405 68.7746C15.3425 72.7834 13.3394 77.3188 11.9414 82.2081C10.5487 87.0575 9.34171 92.1258 8.3251 97.3159C7.30848 102.506 6.48349 107.813 5.82317 113.143L5.81728 113.126Z" fill="#B3D47B"/>
<path d="M93.9882 64.0948C88.755 64.1157 86.2664 63.9321 86.2222 62.2779C86.1665 60.1919 94.9924 58.8136 101.83 59.872C108.673 60.9269 122.127 60.9609 122.127 60.9609C122.127 60.9609 122.844 52.0407 116.848 45.4727C114.325 42.7075 101.808 37.891 94.7226 37.3673C87.6373 36.8435 76.6512 44.0542 74.3328 44.9223C72.0084 45.7941 69.2815 43.2342 71.9967 40.8629C81.5697 32.4936 104.099 33.5392 104.099 33.5392C104.099 33.5392 107.059 30.2294 102.24 25.8847C99.7679 23.6547 82.3928 7.82452 62.6561 12.1197C47.7591 15.3668 50.1121 45.4713 50.1121 45.4713C50.5157 48.6605 52.682 53.8277 39.3736 54.8438C26.0665 55.8552 15.3411 63.0563 11.9784 71.184C8.61558 79.3117 16.9775 87.4261 16.9775 87.4261C26.6047 85.0736 33.0409 73.9137 35.7889 70.306C38.5334 66.6922 40.2982 72.8654 37.7027 76.363C35.1073 79.8607 19.3655 86.9842 19.5538 92.2093C19.7468 97.4358 38.2489 111.498 40.5584 107.492C43.196 102.921 47.6531 95.0937 48.7768 89.1359C49.7391 84.0349 53.8197 83.9772 54.776 88.6535C55.7323 93.3297 48.253 96.2212 43.1615 107.137C38.0699 118.054 78.3849 126.673 76.9344 122.803C75.4839 118.933 75.8696 115.252 74.7085 112.155C73.5474 109.058 71.7673 85.1204 76.9361 90.1246C80.8223 93.8854 80.0129 101.294 79.2274 113.131C78.6289 122.129 85.5008 125.335 88.5467 125.441C92.4071 125.574 105.821 125.66 105.271 124.897C104.716 124.132 96.2929 108.481 97.1942 104.526C98.0967 100.566 103.017 110.429 103.084 112.254C103.154 114.086 107.662 120.457 111.119 121.9C114.571 123.342 129.469 121.123 129.412 119.559C129.356 117.989 130.971 109.194 130.55 104.089C130.339 101.586 128.335 93.7748 123.616 91.8426C120.946 90.7491 99.9696 87.4116 99.8087 82.9736C99.6442 78.5295 125.738 89.9625 126.479 88.6264C127.215 87.2891 128.836 72.4052 125.398 67.377C121.831 62.1547 96.9152 64.0826 93.9882 64.0948ZM61.7757 71.2864C61.2599 73.1667 59.7282 77.36 57.8699 78.6631C54.2915 80.8973 53.6414 76.7709 54.8156 74.2667C55.9298 71.22 58.7234 68.5281 60.6375 66.1185L60.6682 66.0801C64.8366 60.709 62.7054 68.2536 61.7708 71.2852L61.7757 71.2864ZM77.4444 74.336C77.5029 75.4 77.4878 76.9251 77.2072 78.0814C77.0765 79.8916 76.4878 85.0848 74.5991 85.7911C71.4415 86.9261 70.494 82.216 71.2772 80.2608C72.2576 77.985 74.1819 73.455 76.2122 72.1656L76.2366 72.1513C77.2268 71.7016 77.3655 72.8743 77.4408 74.33L77.4444 74.336ZM89.1656 53.4003C92.7005 57.2607 83.7963 57.6113 81.9754 57.2246C78.5847 56.0622 86.9376 50.9084 89.1656 53.4003ZM95.0866 89.3989C95.1256 90.9743 93.7282 91.4006 92.6055 90.4158C90.966 88.9761 91.4846 83.7543 93.7025 85.9285C94.057 86.3721 95.013 88.7495 95.0866 89.3989ZM103.081 79.1772C102.283 79.3463 98.4261 79.1007 97.5515 78.7695C95.5048 77.8022 95.8836 76.408 97.8678 75.6129C100.77 74.4474 107.297 77.7495 103.086 79.1784L103.081 79.1772Z" fill="#61863A"/>
<path d="M89.1669 53.4008C89.5088 53.774 89.7019 54.1033 89.8286 54.4101C90.2878 53.9563 90.7626 53.5221 91.1908 53.1275C90.2264 52.5662 89.3235 52.1656 88.521 51.5381C89.3365 51.2237 89.8977 50.2593 90.4862 49.8444C89.3953 48.9557 87.8082 49.1983 86.3782 49.3732C87.3934 48.6097 88.6696 47.5579 89.1044 46.266C87.3647 45.6268 85.0497 46.8987 83.4248 47.524C84.4139 46.2062 85.5022 44.6662 85.8141 43.0531C84.4724 43.1271 78.691 47.1945 78.691 47.1945C78.3021 47.1604 77.7603 44.4621 77.7603 44.4621C76.3125 45.2007 72.9484 47.2273 72.9484 47.2273C72.9484 47.2273 71.4396 46.7928 71.5532 45.3656C70.3549 45.6423 69.6273 46.3929 69.1401 46.0025C69.1401 46.0025 68.0194 41.6398 69.7673 37.2911C69.2792 37.479 68.0762 37.7545 67.4877 38.1693C67.2737 37.1269 67.4461 36.1284 67.9117 35.3922C67.2617 35.6464 66.2856 36.0223 65.593 36.658C64.9902 35.5814 64.9858 34.3095 64.866 32.8267C63.0744 33.517 62.9436 36.5565 61.7938 37.9358C61.0762 35.5947 61.2001 33.4935 61.7507 31.0438C59.7321 31.6336 58.3982 34.9486 57.0878 36.3893C56.8384 35.7406 55.8753 35.1745 55.6861 34.6913C55.2253 35.4288 54.47 35.9087 54.2362 36.7466C51.9981 34.531 51.856 31.5082 51.0442 28.6363C50.0844 33.7276 49.9489 38.8271 49.9908 42.0563C50.6758 41.4496 51.3772 40.8988 52.1519 40.5428C52.6543 41.8463 52.5694 43.5599 53.1332 45.0241C54.8312 43.6223 55.9585 41.6948 57.6578 40.2882C57.5114 41.8411 57.7479 43.4318 58.3117 44.896C59.4826 44.0698 60.5368 42.9187 61.4869 41.9885C61.4739 42.9304 61.1409 43.9905 61.1893 45.0931C61.8783 44.4512 62.6002 43.4254 63.5763 43.0495C64.2325 45.23 63.5425 48.2943 63.4836 50.5622C64.6334 49.1829 65.561 47.7044 66.0335 46.0299C67.1127 47.8556 65.2752 49.8719 65.4726 51.8502C66.8103 50.959 68.0251 49.7464 69.4905 49.1778C69.1514 50.2414 68.6516 51.3664 68.543 52.5366C70.2293 52.072 71.645 50.4056 73.2097 49.6148C72.8754 50.6797 72.0482 51.9312 72.1015 53.0351C73.9887 52.1166 75.6916 50.7161 77.7053 50.125C77.0319 52.2534 76.5191 54.3205 76.2947 56.6486C77.9835 56.6702 79.6088 56.1225 81.2264 56.5957C80.6944 54.8505 87.2374 51.2501 89.1741 53.413L89.1669 53.4008Z" fill="#66903D"/>
<path d="M104.774 67.5092C102.643 66.5666 100.928 64.9625 98.98 63.892C96.5008 63.9898 94.6604 64.094 93.9887 64.0946C88.7555 64.1155 86.2669 63.9319 86.2227 62.2777C86.1953 61.1341 88.8404 60.2013 92.3621 59.7706C91.7733 59.3537 91.2304 58.9592 90.7596 58.6247C92.258 57.672 94.781 59.032 96.4283 58.9549C94.861 57.3171 92.4738 57.1807 90.2839 56.3466C90.9989 56.2591 92.4678 55.9548 92.4949 55.0579C91.7259 55.2139 90.8352 55.2815 89.9526 55.2788C89.4808 57.3668 83.4448 57.5349 81.9807 57.2257C81.8055 57.1646 81.6753 57.0893 81.5573 57.0069C80.9611 57.7091 80.237 58.3469 79.8206 59.0133C80.2696 59.2129 81.2991 59.9409 82.0755 60.0141C81.714 60.5295 81.5367 61.5268 81.1752 62.0421C83.2305 63.492 86.0418 63.5272 87.9637 65.588C87.4757 65.776 87.1755 66.452 86.9144 66.7404C91.1713 68.0872 96.155 68.4095 100.446 69.3674C98.7053 68.733 97.1995 67.2559 95.76 65.9406C98.6767 65.7501 101.208 67.9491 104.159 67.3698L104.769 67.508L104.774 67.5092Z" fill="#66903D"/>
<path d="M53.8516 97.0808C53.5363 99.1631 52.6359 101.191 52.5603 103.186C54.814 101.753 57.1194 99.7455 59.4097 99.1438C58.8094 100.496 58.214 101.849 57.6089 103.2C59.3202 102.54 61.2676 101.787 62.9185 101.716C63.22 104.683 65.2718 110.032 67.1298 112.675C68.7434 109.634 67.1152 108.032 69.0017 105.352C70.8373 102.55 69.7973 102.398 70.2107 100.93C73.2299 96.4013 69.5963 95.7748 71.1663 90.4034C70.2281 91.6053 68.9567 92.6585 67.4912 93.2271C67.7914 92.5511 67.6577 91.478 67.7156 90.899C66.9274 91.7629 66.2463 92.5928 65.6081 93.1187C65.8173 92.1969 64.8024 90.6203 65.3483 89.8534C64.26 91.3933 63.9006 93.4073 62.7165 94.7002C62.468 91.1537 63.4855 87.2087 63.8173 83.7153C60.7237 86.5872 58.3806 91.4162 55.002 93.5579C55.2264 91.2297 56.0297 88.9595 56.1583 86.3843C55.8152 86.8683 55.1483 87.3661 54.5438 87.8026C54.6345 88.0691 54.7105 88.3523 54.7741 88.6633C55.3292 91.3702 53.0543 93.4791 50.0524 96.8915C50.097 97.8898 50.3056 98.9928 50.4114 99.8159C51.7255 99.5901 53.0017 98.5382 53.8442 97.0892L53.8516 97.0808Z" fill="#66903D"/>
<path d="M53.9157 86.4661C54.2025 85.425 54.5999 84.3559 54.7049 83.2985C54.309 83.7274 53.3329 84.1033 52.9406 84.5383C52.7148 83.2242 52.88 81.4799 53.1435 79.973C50.0651 81.4386 48.0434 84.1817 45.4909 86.2855C44.7922 83.753 48.4506 80.0416 48.9221 77.6177C48.0417 78.2407 44.6028 79.6227 43.6267 79.9986C44.039 78.1585 45.5196 76.1835 45.6848 74.4392C43.9796 75.0952 42.6442 76.7309 40.7499 76.9037C40.953 75.9855 40.6362 74.4255 40.9894 73.1693C40.4833 73.585 39.5886 73.45 38.8738 73.5169C38.7101 74.5022 38.3388 75.5109 37.7047 76.3582C36.8445 77.5185 34.5375 79.0767 31.8442 80.8286C33.6018 81.3589 35.4131 81.6242 36.98 81.3403C37.2125 81.2408 37.4337 81.1848 37.635 81.1856C37.4222 81.2489 37.2022 81.3001 36.98 81.3403C35.5662 81.9483 33.6645 84.2113 32.8589 85.2411C35.7846 85.2338 37.7486 83.6637 39.8901 83.3952C38.4095 85.3702 35.9113 86.8888 35.0158 88.9181C37.4561 87.9784 41.5649 85.5518 41.2663 89.8701C42.3924 89.1562 43.4065 89.6064 44.4748 89.4715C43.1868 95.247 43.6205 93.8206 47.6512 93.161C48.1488 91.7668 48.5406 90.4018 48.7813 89.1214C49.5567 85.0152 52.3513 84.1833 53.9147 86.4503L53.9157 86.4661Z" fill="#66903D"/>
<path d="M38.4968 70.0452C38.6063 68.2967 38.7346 66.7339 38.7346 66.7339C38.7346 66.7339 35.0895 67.1427 33.3039 69.7924C32.8929 70.3982 31.0363 69.4547 31.8399 67.8974L30.3141 68.7964C28.9609 68.201 28.4248 68.2163 26.8318 67.7083C29.575 69.73 27.9291 70.2775 29.7919 72.9221C28.7253 73.3674 27.4448 74.9709 27.4448 74.9709C28.9856 74.6286 29.5396 75.4961 29.5396 75.4961C30.262 77.6008 27.9074 77.5969 26.8423 78.6315C27.4125 78.9608 28.0481 79.2969 28.7227 79.6225C32.0056 76.0044 34.3897 72.1675 35.7976 70.3131C36.961 68.7824 37.9493 69.0141 38.5016 70.0465L38.4968 70.0452Z" fill="#66903D"/>
<path d="M49.8523 51.0293C52.8806 57.4284 29.0918 59.0354 31.8046 66.0703C35.3221 63.376 38.446 62.945 41.9961 62.7026C49.5759 62.0224 44.9638 66.0432 41.3064 67.451C43.4265 68.5924 46.7508 67.0358 49.3755 66.5781C49.7955 72.0238 40.2801 75.6916 40.9211 82.4502C43.8783 80.0025 47.1998 71.6367 54.3921 71.1552C54.2917 72.2345 54.2939 74.0896 54.3545 75.7997C54.441 75.2695 54.5942 74.7412 54.8146 74.2718C55.9288 71.225 58.7224 68.5331 60.6365 66.1236L60.6672 66.0851C64.8356 60.714 62.7044 68.2586 61.7698 71.2902C61.7597 71.3289 61.7459 71.3821 61.7297 71.4244C61.8374 75.2338 61.6369 79.3142 61.0611 83.0902C62.7875 81.0243 63.3057 74.3766 66.1749 73.8328C69.6293 73.3433 69.264 85.3515 71.7056 85.9929C71.6952 85.5769 71.7258 85.182 71.7768 84.8078C70.9556 83.4987 70.8149 81.4216 71.2737 80.2755C72.2541 77.9997 74.1784 73.4697 76.2087 72.1803L76.2331 72.166C77.2233 71.7163 77.362 72.889 77.4373 74.3447C77.4958 75.4086 77.4807 76.9337 77.2001 78.09C77.1735 78.4499 77.1261 78.9489 77.061 79.5157C78.1006 81.9097 76.8019 86.1999 78.67 88.0711C79.3233 86.1388 79.3066 83.9029 80.8239 82.7588C83.3048 86.2826 80.4051 96.0032 82.8107 98.8049C82.6576 95.7843 82.9731 89.776 86.2559 87.3873C89.2236 90.728 87.84 92.9452 88.5174 96.8876C91.1987 95.8557 88.9826 90.8202 92.0941 90.1793C91.6287 92.5997 93.7098 92.9198 93.7904 94.5732C93.8131 96.8056 92.8405 102.322 93.2 104.71C94.4383 102.832 95.3808 97.0539 96.3595 94.7054C98.3723 97.012 96.6727 100.165 100.59 102.043C100.552 101.217 100.017 98.9077 99.9791 98.0816C106.057 101.995 108.141 107.817 109.553 111.476C110.394 110.032 110.523 107.457 110.355 105.564C112.406 108.696 113.346 111.137 116.613 113.801C118.22 114.969 121.781 115.262 122.208 115.249C122.208 115.249 121.169 114.022 118.599 111.591C108.346 101.915 80.7091 64.504 67.8431 56.9828C64.4582 55.0056 56.5845 50.9652 49.8436 51.0426L49.8523 51.0293ZM93.7027 85.9287C94.0572 86.3723 95.0133 88.7497 95.0869 89.3991C95.1258 90.9745 93.7285 91.4008 92.6058 90.416C90.9663 88.9763 91.4849 83.7545 93.7027 85.9287Z" fill="#86B04B"/>
<path d="M104.435 77.8097C104.525 77.6833 104.619 77.5581 104.698 77.4134C104.552 77.401 104.387 77.3788 104.226 77.3626C104.331 77.514 104.406 77.6627 104.435 77.8097Z" fill="#66903D"/>
<path d="M99.8089 82.9737C99.7697 81.9149 101.225 81.762 103.468 82.114C103.389 80.8535 104.311 81.0215 105.377 80.1421C104.6 80.0689 103.677 79.9264 103.101 79.3993C103.19 79.2777 103.286 79.1635 103.383 79.0493C103.284 79.0956 103.199 79.1408 103.08 79.1821C102.282 79.3512 98.4251 79.1056 97.5505 78.7744C95.5038 77.8071 95.8826 76.4129 97.8668 75.6178C98.8602 75.2155 100.271 75.3507 101.538 75.7428C102.701 74.1551 104.353 71.7599 104.752 71.1612C102.932 70.811 100.16 72.1705 96.0289 71.0735C94.5935 70.6943 89.9182 69.9616 88.3802 68.9255C90.1262 70.8682 93.2976 73.8435 95.3931 75.3969C94.6349 75.6901 97.0484 77.6879 92.8619 77.5578C94.6517 79.6101 100.178 85.3841 102.316 87.0519C102.098 87.1346 100.913 87.7763 100.655 87.7556C102.24 90.2557 108.156 96.8338 111.231 97.542C110.56 95.4402 105.976 92.9905 105.811 90.3129C107.497 90.1635 109.361 92.0904 111.153 91.896C108.933 89.8092 105.696 88.5319 103.441 86.1828C101.284 85.2023 99.8448 84.1247 99.8041 82.9725L99.8089 82.9737Z" fill="#66903D"/>
<path d="M88.1028 71.3586C86.6018 69.8827 80.8828 65.2258 87.8636 65.1593C86.0777 62.9531 80.1995 63.9423 79.8094 61.4747C79.4842 59.1739 83.072 59.2822 84.5752 58.3308C80.7605 58.122 76.6525 57.6508 73.8112 54.6375C70.1675 50.9967 74.5427 53.1389 77.6455 48.1101C74.6899 48.6882 71.4142 51.8227 68.2885 50.972C63.9925 50.0128 66.7161 44.477 66.5243 41.5652C64.8214 42.9657 63.3871 46.5076 60.9975 46.1226C61.1439 44.5697 61.2336 42.8573 60.9582 41.6543C60.1973 43.0677 59.0358 45.3841 57.3434 45.8523C56.9191 43.7736 54.4567 45.4721 52.4807 36.1444C50.719 39.8128 53.6824 47.0163 50.896 49.958L49.8585 51.0256C54.503 52.4115 61.6117 53.1428 65.5958 55.7151C70.2156 58.9801 75.1067 61.9179 79.4264 65.8588C81.2157 67.5959 83.3134 70.1519 85.1008 72.4515C86.8858 74.7402 88.7945 76.5548 90.5057 78.7105C93.7161 82.7653 96.438 85.7011 99.0726 88.8929C99.7039 89.6618 104.343 95.0136 105.145 96.08C106.96 98.4902 114.909 104.085 102.672 90.8795C102.418 90.6066 103.89 90.8043 103.89 90.8043C103.89 90.8043 102.582 88.9859 100.3 87.0173C97.7153 84.7838 94.9004 80.956 98.0273 82.1788C97.4954 81.0484 96.0943 80.2597 94.5821 78.9462C93.6251 78.1183 92.1983 76.1399 92.1983 76.1399C92.1983 76.1399 92.5082 75.7041 92.8728 75.4943C93.6901 74.8756 95.6224 75.8853 97.1053 76.0031C97.303 75.879 97.52 75.7599 97.7744 75.6557C95.2659 73.566 90.6754 74.3122 88.0979 71.3573L88.1028 71.3586Z" fill="#86B04B"/>
<path d="M96.0494 109.398C95.547 108.095 95.3708 106.67 95.1946 105.244C94.4337 106.658 93.4458 107.971 92.3351 108.963C92.1199 107.925 92.0099 106.662 92.1173 105.496C91.5951 106.073 90.7194 106.222 90.2928 106.571C89.8554 105.434 90.1295 104.204 89.9143 103.166C89.6484 103.453 89.0647 103.869 88.8036 104.158C88.7893 102.666 88.3861 101.141 88.2099 99.7154C87.1489 101.805 86.9895 104.3 85.4746 106.188C85.1495 103.887 84.7934 101.031 83.4259 98.9441C82.9746 101.172 82.8815 103.829 82.4917 106.217L82.7186 106.317C84.7622 108.704 85.1667 112.663 85.9067 115.553C85.4421 113.866 85.6274 111.926 86.7772 110.547C87.1531 111.523 87.4285 112.726 87.6437 113.763C88.3054 112.572 89.1278 111.319 90.2031 110.721C90.8284 112.346 91.1359 114.1 91.5342 115.624C92.261 114.6 92.6957 113.308 93.8715 112.483C94.4353 113.947 94.9991 115.411 95.8289 116.588C96.2071 115.137 96.449 113.356 96.8272 111.905C97.874 112.467 98.8158 114.086 100.06 114.504C99.1036 112.328 98.2378 110.139 97.6996 108.299C97.2276 108.822 96.691 109.256 96.0469 109.408L96.0494 109.398Z" fill="#66903D"/>
<path d="M98.7538 116.881C97.8003 119.489 98.9478 124.205 98.9478 124.205C95.8011 122.166 96.0193 119.722 96.151 119.038C95.3423 122.459 96.804 124.839 96.804 124.839C95.0966 125.345 87.6437 114.337 87.6437 114.337C87.4934 116.659 90.9533 124.653 90.9533 124.653C88.3849 124.2 86.5462 117.419 86.5462 117.419C86.1608 120.94 86.9753 123.663 86.9753 123.663C83.5832 122.644 81.5779 109.92 81.5779 109.92C80.118 112.133 79.5331 114.378 79.305 115.987C80.1538 122.82 85.8553 125.344 88.5533 125.438C91.2004 125.528 98.3266 125.598 102.379 125.388C100.297 121.327 98.7538 116.881 98.7538 116.881Z" fill="#4E7C39"/>
<path d="M129.412 119.559C122.109 116.303 117.506 116.72 117.506 116.72C120.166 119.635 120.142 121.256 120.142 121.256L118.485 120.514C114.819 118.231 111.177 118.29 111.177 118.29C112.913 119.517 113.715 121.017 114.06 122.352C119.591 122.538 129.451 120.835 129.407 119.558L129.412 119.559Z" fill="#4E7C39"/>
<path d="M105.311 44.192C105.311 44.192 98.1847 46.7002 95.9839 45.4913C95.8935 45.4419 95.8104 45.3841 95.7346 45.3179C93.893 43.7222 97.5529 49.5214 106.241 49.1092C106.241 49.1092 101.99 53.6477 93.657 52.7163C93.657 52.7163 100.685 56.552 110.217 58.1161C110.217 58.1161 113.268 57.9038 105.949 59.3286C105.949 59.3286 107.661 59.9761 109.869 60.6188C115.976 60.9546 122.129 60.972 122.129 60.972C122.129 60.972 122.846 52.0517 116.85 45.4837C114.327 42.7185 101.81 37.9021 94.7246 37.3784C93.7723 37.3059 92.7459 37.3793 91.682 37.5567C95.5871 38.3108 104.771 40.4764 105.315 44.198L105.311 44.192Z" fill="#395628"/>
<path d="M127.194 94.9238C126.677 94.9442 125.626 94.6549 123.888 93.9696L126.697 96.5303C126.697 96.5303 127.44 98.5782 125.581 97.1485L126.564 99.4401C126.564 99.4401 124.527 99.9837 121.071 97.8021L124.593 103.317C124.593 103.317 121.658 104.175 118.401 101.786L120.437 106.382C120.437 106.382 117.14 107.972 111.992 98.1897C111.992 98.1897 107.037 101.801 122.82 115.475C125.804 118.061 127.734 119.654 129.412 119.559C129.356 117.989 130.971 109.194 130.55 104.089C130.405 102.347 129.389 98.0374 127.198 94.9251L127.194 94.9238Z" fill="#395628"/>
<path d="M110.608 69.4999C110.608 69.4999 116.038 70.3104 118.505 68.5768C118.505 68.5768 111.675 74.8041 107.22 72.2537C107.22 72.2537 109.422 75.023 114.566 73.8786C114.566 73.8786 116.358 76.2207 110.459 77.468C110.459 77.468 114.324 79.8439 117.913 79.1727C117.913 79.1727 114.908 82.4602 110.738 81.4719C110.738 81.4719 113.947 83.6303 117.567 86.2112C122.302 87.8065 126.199 89.1268 126.475 88.6203C127.211 87.2829 128.832 72.3991 125.395 67.3708C124.265 65.7179 120.996 64.7834 116.96 64.2742C115.35 66.3909 112.968 68.968 110.611 69.4902L110.608 69.4999Z" fill="#395628"/>
<path d="M62.0235 19.0479C62.0235 19.0479 55.0113 27.7796 53.4258 32.8732C53.4258 32.8732 71.5657 17.8149 75.0123 19.5756C75.0123 19.5756 69.6131 22.2756 66.8004 25.1794C66.8004 25.1794 74.1638 21.5035 76.4919 23.0762C76.4919 23.0762 66.8473 26.4469 64.9121 28.2828C64.9121 28.2828 80.2239 25.6448 81.0611 27.2887C81.0611 27.2887 77.7417 27.9942 75.3302 31.2815C75.3302 31.2815 81.6194 26.9899 86.5105 27.9648C86.5105 27.9648 77.0993 32.0059 75.5162 34.6516C75.5162 34.6516 93.4564 27.0213 96.074 30.6944C96.074 30.6944 84.2189 32.7349 81.3838 35.824C81.3838 35.824 82.9244 35.5023 85.2004 35.1138C94.5212 33.1051 104.096 33.5493 104.096 33.5493C104.096 33.5493 107.056 30.2395 102.237 25.8947C99.7654 23.6647 82.3902 7.83459 62.6535 12.1297C58.1407 13.1131 55.2136 16.5554 53.3229 20.8772C55.9137 19.4395 59.3425 18.0962 62.0187 19.0466L62.0235 19.0479Z" fill="#395628"/>
<path d="M56.6136 52.4193C56.6136 52.4193 56.5913 52.3463 56.549 52.2113C56.508 52.0715 56.4419 51.889 56.3758 51.5876C56.3023 51.2947 56.2462 50.9546 56.1992 50.5601C56.1619 50.1681 56.1384 49.7229 56.1663 49.2394C56.1723 49.117 56.1832 48.9959 56.1893 48.8735C56.2063 48.7488 56.2185 48.6228 56.2319 48.492C56.2526 48.2339 56.3098 47.975 56.3536 47.7075C56.4656 47.1788 56.6008 46.6199 56.7858 46.0689C56.9658 45.5166 57.1751 44.9512 57.4183 44.3947C57.6566 43.8369 57.9107 43.2781 58.1829 42.7291C58.7176 41.6286 59.2908 40.5589 59.8138 39.5431C60.0698 39.0365 60.3207 38.5491 60.5473 38.0761C60.7726 37.6079 60.9771 37.1601 61.1619 36.7485C61.2476 36.5383 61.3357 36.3392 61.4115 36.1471C61.4874 35.9551 61.5608 35.7728 61.6267 35.5988C61.7539 35.2497 61.8587 34.9464 61.9401 34.6938C62.0262 34.4424 62.0743 34.238 62.1144 34.1038C62.151 33.9635 62.1699 33.891 62.1699 33.891C62.1699 33.891 62.151 33.9635 62.1241 34.1063C62.0888 34.2418 62.0552 34.45 61.9836 34.7051C61.9252 34.9689 61.8349 35.2759 61.7319 35.6314C61.6756 35.8078 61.6155 35.9988 61.5493 36.1934C61.4819 36.3927 61.4083 36.5957 61.3358 36.8145C61.1776 37.2433 60.9996 37.7083 60.8008 38.1938C60.602 38.6792 60.3872 39.1863 60.1577 39.7102C59.7048 40.7545 59.1991 41.8626 58.7382 42.9771C58.5047 43.5361 58.2906 44.1002 58.0947 44.6536C57.894 45.2057 57.7285 45.7618 57.5886 46.2988C57.4487 46.8357 57.3537 47.3585 57.2761 47.8549C57.253 48.102 57.2167 48.3405 57.2119 48.5769C57.2071 48.6944 57.1975 48.8107 57.1952 48.9186C57.1977 49.0278 57.1942 49.1405 57.1968 49.2496C57.2034 49.6801 57.2468 50.0685 57.298 50.4073C57.3602 50.7438 57.4227 51.039 57.4993 51.2605C57.5566 51.4769 57.6418 51.685 57.6902 51.8165C57.7435 51.9492 57.767 52.0173 57.767 52.0173L56.6149 52.4145L56.6136 52.4193Z" fill="#B3D47B"/>
<path d="M59.9156 53.9202C59.9156 53.9202 59.7916 53.9602 59.5544 54.0378C59.4364 54.0743 59.294 54.125 59.1189 54.1827C58.9631 54.2454 58.7793 54.3163 58.582 54.3992C58.3776 54.4699 58.151 54.5865 57.9098 54.6993C57.6589 54.8096 57.3969 54.9428 57.1166 55.0867C56.8327 55.2245 56.5401 55.3962 56.228 55.5629C55.9183 55.7404 55.5915 55.9239 55.25 56.1242C54.5658 56.5297 53.8267 56.9673 53.0401 57.4287C52.2487 57.8889 51.3928 58.3581 50.472 58.7794C49.5512 59.2007 48.5606 59.5728 47.5226 59.8292C46.509 60.0714 45.4712 60.3072 44.4396 60.5395C42.3762 61.004 40.3164 61.4746 38.4076 62.0001C36.5001 62.5207 34.7436 63.0961 33.2885 63.7243C31.8346 64.3476 30.7073 65.0457 29.9994 65.6413C29.8258 65.7924 29.6704 65.9327 29.5442 66.0599C29.4217 66.1933 29.3115 66.2989 29.2354 66.3927C29.0819 66.5852 28.9972 66.6923 28.9972 66.6923C28.9972 66.6923 29.0771 66.584 29.227 66.3854C29.2995 66.2855 29.4109 66.175 29.5238 66.0391C29.6464 65.9058 29.7969 65.7642 29.9683 65.6022C30.6583 64.9761 31.7666 64.2318 33.2102 63.5489C34.6489 62.8648 36.3976 62.2202 38.2986 61.6255C40.1995 61.0309 42.248 60.485 44.2939 59.9488C45.315 59.6776 46.3398 59.4125 47.338 59.1302C48.3144 58.8526 49.2408 58.4689 50.1084 58.0338C50.976 57.5986 51.7896 57.1132 52.5558 56.631C53.3197 56.1378 54.0445 55.6758 54.7131 55.2508C55.0487 55.0334 55.3792 54.8354 55.6879 54.6421C56.005 54.4561 56.3002 54.2747 56.5891 54.1175C56.878 53.9604 57.1451 53.8078 57.4058 53.6795C57.6665 53.5511 57.8945 53.4297 58.1222 53.3289C58.3438 53.2317 58.5485 53.1403 58.7226 53.0669C58.8893 53.0019 59.0317 52.9511 59.1473 52.9038C59.381 52.82 59.5027 52.7691 59.5027 52.7691L59.9108 53.9189L59.9156 53.9202Z" fill="#B3D47B"/>
<path d="M64.5436 55.8858C64.5436 55.8858 63.9757 56.4197 62.9783 57.3531C62.4802 57.8174 61.86 58.3738 61.154 59.0216C60.4456 59.6584 59.6492 60.3755 58.7794 61.1562C57.9132 61.943 56.9616 62.7798 55.9898 63.6941C55.4991 64.15 54.9878 64.6056 54.4834 65.0941C53.979 65.5826 53.4672 66.0794 52.9433 66.5835C52.4265 67.0997 51.9205 67.6342 51.3938 68.1686C51.2603 68.3043 51.1329 68.4364 50.9994 68.572C50.8743 68.7151 50.7505 68.8533 50.6254 68.9963C50.3765 69.2776 50.1215 69.5624 49.8664 69.8472C49.7413 69.9903 49.6114 70.1321 49.4863 70.2751C49.4262 70.3472 49.3564 70.4169 49.3011 70.4903L49.1182 70.7164C48.8739 71.0195 48.6309 71.3178 48.3866 71.6209C47.8993 72.2223 47.4059 72.8273 46.9125 73.4323C46.419 74.0373 45.9305 74.6435 45.4432 75.2449C45.194 75.5467 44.951 75.845 44.7067 76.1481C44.4673 76.4525 44.2291 76.7521 43.9945 77.0577C43.0453 78.2619 42.1108 79.4494 41.2131 80.5947C40.9884 80.8823 40.7649 81.165 40.5415 81.4477C40.4322 81.5897 40.318 81.7304 40.2099 81.8676L40.0466 82.0781L39.8929 82.2912C39.6888 82.579 39.4824 82.8558 39.3085 83.1463C39.2198 83.2885 39.1263 83.4294 39.0363 83.5764C38.9512 83.7247 38.8673 83.8682 38.7834 84.0116C38.1209 85.1666 37.5845 86.3131 37.1192 87.3851C36.6539 88.4572 36.2741 89.4586 35.9585 90.3527C35.6381 91.2455 35.3756 92.0346 35.18 92.6862C34.9735 93.3401 34.8338 93.8564 34.7369 94.2083C34.6449 94.5614 34.5957 94.7501 34.5957 94.7501C34.5957 94.7501 34.6352 94.5589 34.7224 94.2045C34.8108 93.8453 34.9408 93.3264 35.1219 92.6711C35.3043 92.0109 35.5426 91.2154 35.8437 90.3176C36.1461 89.4149 36.498 88.4011 36.9356 87.3166C37.3744 86.2274 37.8891 85.0648 38.5289 83.8781C38.6092 83.7286 38.6882 83.5839 38.7746 83.4307C38.8646 83.2837 38.9497 83.1354 39.0397 82.9884C39.2173 82.6834 39.4105 82.398 39.6098 82.109L39.7599 81.8898L39.9184 81.678C40.0277 81.536 40.1322 81.3927 40.2428 81.2459C40.4566 80.9607 40.6729 80.6658 40.8928 80.3769C41.7665 79.2047 42.6757 77.9952 43.5961 76.7627C43.8258 76.4558 44.0569 76.1441 44.2915 75.8385C44.5261 75.5328 44.762 75.2224 45.0014 74.918C45.4768 74.3031 45.9569 73.6895 46.4287 73.0686C46.9052 72.4489 47.3806 71.834 47.8607 71.2204C48.0953 70.9148 48.3361 70.6056 48.5707 70.2999L48.7487 70.0726C48.8114 69.9907 48.8763 69.9198 48.9365 69.8477C49.0628 69.6998 49.1892 69.5519 49.3107 69.4028C49.5634 69.107 49.81 68.8149 50.0566 68.5227C50.1829 68.3748 50.3032 68.2305 50.4296 68.0826C50.5595 67.9408 50.6881 67.8039 50.8132 67.6608C51.3292 67.1082 51.8354 66.5531 52.3354 66.0221C52.8486 65.4998 53.3593 64.9872 53.8578 64.4817C54.3514 63.9749 54.8556 63.507 55.3356 63.0329C56.2943 62.0894 57.2255 61.2317 58.0726 60.4193C58.922 59.6178 59.698 58.8798 60.3895 58.2283C61.0713 57.5743 61.6722 57.0128 62.1583 56.5351C63.1318 55.5748 63.6828 55.0261 63.6828 55.0261L64.5325 55.9088L64.5436 55.8858Z" fill="#B3D47B"/>
<path d="M75.1879 62.5953C75.1879 62.5953 74.6312 63.2251 73.654 64.3188C72.6853 65.4198 71.3044 66.992 69.7717 68.9688C69.0077 69.9579 68.2063 71.0509 67.4294 72.2483C66.6524 73.4458 65.8986 74.7527 65.224 76.1524C64.5541 77.5534 63.956 79.0558 63.481 80.6212C63.2404 81.4057 63.0276 82.2026 62.8425 83.0119C62.7428 83.4147 62.6672 83.8238 62.5771 84.2291L62.3478 85.4659C62.0586 87.1108 61.8215 88.7744 61.6112 90.414C61.4167 92.0525 61.243 93.6706 61.1183 95.2395C61.0439 96.0208 61.0023 96.7952 60.9451 97.55C60.9037 98.3037 60.8647 99.0478 60.8225 99.7651C60.7621 101.206 60.7219 102.57 60.7082 103.832C60.6957 105.089 60.7145 106.246 60.7419 107.271C60.7635 107.783 60.783 108.263 60.7981 108.701C60.8215 109.146 60.8551 109.552 60.8745 109.914C60.9158 110.648 60.9876 111.225 61.0201 111.615C61.0575 112.007 61.0796 112.22 61.0796 112.22C61.0796 112.22 61.0562 112.012 61.0079 111.622C60.9658 111.229 60.8769 110.658 60.8199 109.926C60.792 109.557 60.7475 109.152 60.7131 108.71C60.6835 108.268 60.6531 107.79 60.6219 107.276C60.569 106.249 60.5235 105.096 60.5069 103.831C60.4891 102.571 60.4942 101.204 60.5255 99.7549C60.5484 99.0325 60.5764 98.2908 60.5985 97.532C60.6412 96.7734 60.6622 95.9988 60.7234 95.2089C60.8142 93.6312 60.9528 92.0091 61.1098 90.3556C61.2814 88.7059 61.4799 87.0323 61.7341 85.3628C61.9809 83.7018 62.3104 82.0209 62.7701 80.4153C63.2214 78.8024 63.7957 77.2525 64.454 75.7968C65.1122 74.3411 65.8532 72.9844 66.6208 71.7432C67.3885 70.502 68.1758 69.364 68.9328 68.3422C70.4468 66.2984 71.8026 64.6835 72.7535 63.552C73.708 62.4266 74.2527 61.7834 74.2527 61.7834L75.1698 62.5854L75.1879 62.5953Z" fill="#B3D47B"/>
<path d="M89.5651 77.4787C89.5651 77.4787 89.4667 77.6184 89.2847 77.8809C89.1997 78.0086 89.1072 78.1653 88.9975 78.3485C88.8949 78.5439 88.7642 78.7681 88.6452 79.0264C88.3867 79.5428 88.1267 80.2034 87.8693 80.9732C87.6107 81.7478 87.363 82.6389 87.1422 83.6249C86.6946 85.6004 86.3561 87.9504 86.1284 90.4895C86.0152 91.7566 85.9319 93.0677 85.8773 94.4069C85.8228 95.7461 85.7948 97.1026 85.8019 98.4631C85.8013 99.1396 85.8151 99.8199 85.8338 100.502L85.8506 101.012L85.8527 101.044L85.8489 101.058L85.8538 101.059L85.8628 101.124L85.8761 101.251L85.8979 101.505C85.9345 101.84 85.9542 102.181 86.0031 102.509C86.161 103.826 86.427 105.124 86.7251 106.359C86.8681 106.98 87.0428 107.579 87.203 108.173C87.3802 108.762 87.5455 109.337 87.7316 109.891C88.0867 111.007 88.4497 112.052 88.793 113.014C89.4796 114.939 90.0699 116.54 90.4637 117.665C90.663 118.228 90.8114 118.67 90.9127 118.975C91.0139 119.281 91.0657 119.439 91.0657 119.439C91.0657 119.439 91.0091 119.279 90.9017 118.978C90.7992 118.677 90.6399 118.238 90.4296 117.677C90.0188 116.557 89.3931 114.974 88.6677 113.059C88.3074 112.103 87.9163 111.066 87.5394 109.955C87.3472 109.404 87.1674 108.825 86.9793 108.239C86.8033 107.645 86.6189 107.045 86.4601 106.425C86.133 105.182 85.839 103.892 85.6523 102.546C85.5902 102.21 85.568 101.879 85.5216 101.541L85.4938 101.291L85.4805 101.164L85.4763 101.101L85.4729 101.074L85.4767 101.059L85.4697 101.027L85.4421 100.518C85.4124 99.839 85.3841 99.1549 85.3702 98.4745C85.3341 97.1065 85.3391 95.7389 85.3634 94.397C85.3937 93.0514 85.4492 91.728 85.5347 90.4485C85.7104 87.8907 86.0069 85.5039 86.4211 83.4783C86.6275 82.4679 86.8621 81.5476 87.1139 80.7402C87.3656 79.9327 87.6247 79.2357 87.8885 78.6794C88.0125 78.4017 88.1434 78.1569 88.2571 77.9386C88.3841 77.7289 88.4915 77.5347 88.5777 77.4022C88.7549 77.1384 88.8545 76.9939 88.8545 76.9939L89.5722 77.4909L89.5651 77.4787Z" fill="#B3D47B"/>
<path d="M107.402 98.4396C107.402 98.4396 107.396 98.5207 107.382 98.6722C107.374 98.8248 107.349 99.0562 107.341 99.3277C107.331 99.604 107.315 99.9409 107.327 100.331C107.328 100.528 107.33 100.735 107.346 100.951C107.356 101.171 107.364 101.4 107.389 101.639C107.429 102.12 107.485 102.64 107.569 103.189C107.611 103.464 107.657 103.744 107.712 104.027C107.742 104.169 107.766 104.315 107.795 104.462C107.825 104.604 107.859 104.753 107.893 104.901C108.023 105.493 108.185 106.098 108.361 106.712C108.548 107.324 108.744 107.938 108.967 108.549C109.185 109.158 109.432 109.76 109.68 110.352C109.935 110.94 110.239 111.479 110.572 111.984C110.906 112.489 111.262 112.964 111.601 113.409C111.938 113.859 112.258 114.278 112.54 114.682C112.824 115.081 113.059 115.468 113.252 115.818C113.438 116.171 113.577 116.491 113.666 116.763C113.714 116.899 113.749 117.022 113.783 117.129C113.812 117.235 113.828 117.332 113.846 117.403C113.878 117.556 113.894 117.633 113.894 117.633C113.894 117.633 113.873 117.555 113.84 117.407C113.817 117.334 113.8 117.242 113.771 117.136C113.737 117.029 113.691 116.908 113.642 116.777C113.54 116.513 113.396 116.196 113.195 115.855C112.995 115.513 112.751 115.14 112.455 114.752C112.164 114.362 111.826 113.953 111.475 113.516C111.124 113.078 110.748 112.619 110.394 112.113C110.039 111.612 109.698 111.059 109.426 110.476C109.154 109.894 108.887 109.293 108.642 108.686C108.392 108.079 108.175 107.464 107.963 106.851C107.767 106.237 107.574 105.629 107.425 105.032C107.386 104.882 107.348 104.733 107.308 104.588C107.274 104.44 107.24 104.292 107.21 104.15C107.142 103.858 107.086 103.575 107.036 103.293C106.929 102.733 106.854 102.207 106.797 101.712C106.763 101.466 106.747 101.229 106.729 101.002C106.704 100.779 106.693 100.564 106.689 100.362C106.665 99.9575 106.67 99.6023 106.669 99.3077C106.668 99.0131 106.684 98.795 106.688 98.641C106.692 98.4871 106.698 98.4059 106.698 98.4059L107.396 98.4431L107.402 98.4396Z" fill="#B3D47B"/>
<path d="M103.405 93.9526C103.405 93.9526 103.839 93.9315 104.599 93.8917C104.787 93.8839 104.996 93.8714 105.227 93.8592C105.46 93.8578 105.711 93.8664 105.977 93.8739C106.511 93.8889 107.118 93.8767 107.768 93.9583C108.097 93.9871 108.435 94.0183 108.787 94.0533C108.965 94.0636 109.141 94.1041 109.32 94.1302C109.498 94.161 109.682 94.1883 109.869 94.2217C110.052 94.2538 110.241 94.2824 110.434 94.317C110.528 94.3313 110.627 94.3468 110.72 94.3659C110.817 94.3911 110.909 94.4151 111.008 94.4306C111.392 94.5254 111.781 94.6165 112.18 94.7102C112.282 94.7367 112.379 94.7619 112.48 94.7884C112.582 94.8148 112.676 94.8497 112.776 94.881C112.977 94.9436 113.173 95.005 113.374 95.0676C113.775 95.1928 114.184 95.3096 114.583 95.4809C114.982 95.6364 115.385 95.7932 115.789 95.95C116.184 96.1358 116.575 96.3203 116.973 96.5013L117.267 96.64C117.378 96.6896 117.461 96.7474 117.556 96.7981C117.744 96.909 117.938 97.0007 118.116 97.1298C118.295 97.254 118.482 97.3698 118.659 97.5037C118.831 97.6364 119.003 97.769 119.171 97.8956C119.837 98.4357 120.463 99.0069 121.05 99.568C122.222 100.7 123.276 101.791 124.222 102.678C124.458 102.905 124.689 103.109 124.91 103.312C125.131 103.514 125.348 103.689 125.547 103.86C125.956 104.194 126.314 104.483 126.631 104.695C126.79 104.799 126.922 104.905 127.048 104.979C127.178 105.055 127.28 105.117 127.368 105.177C127.278 105.127 127.17 105.063 127.045 104.989C126.914 104.919 126.78 104.817 126.621 104.713C126.303 104.506 125.937 104.225 125.521 103.9C125.316 103.733 125.094 103.556 124.872 103.359C124.649 103.161 124.412 102.96 124.17 102.742C123.203 101.87 122.13 100.795 120.936 99.6882C120.341 99.1354 119.71 98.5836 119.04 98.0628C118.872 97.9363 118.698 97.8085 118.528 97.6867C118.354 97.5638 118.171 97.454 117.995 97.3359C117.825 97.2142 117.621 97.1248 117.433 97.0139C117.336 96.968 117.24 96.9016 117.151 96.868L116.854 96.739C116.46 96.5641 116.067 96.3892 115.673 96.2144C115.272 96.0685 114.872 95.9178 114.471 95.772C114.079 95.6129 113.668 95.5058 113.27 95.3867C113.068 95.3289 112.871 95.2724 112.675 95.211C112.573 95.1845 112.477 95.1593 112.378 95.1232C112.281 95.098 112.183 95.0776 112.085 95.0572C111.689 94.9696 111.303 94.8846 110.922 94.8008C110.83 94.7768 110.731 94.7613 110.638 94.7422C110.543 94.7279 110.449 94.7136 110.355 94.6994C110.166 94.6708 109.982 94.6435 109.798 94.6162C109.614 94.5889 109.434 94.5629 109.255 94.5369C109.076 94.5109 108.903 94.4813 108.73 94.4723C108.381 94.4433 108.046 94.4182 107.727 94.3969C107.083 94.3274 106.493 94.3543 105.973 94.3479C105.714 94.3478 105.467 94.3453 105.244 94.3492C105.017 94.3675 104.807 94.38 104.618 94.3927C103.861 94.4434 103.429 94.4755 103.429 94.4755L103.4 93.9514L103.405 93.9526Z" fill="#B3D47B"/>
<path d="M85.022 72.0795C85.022 72.0795 85.1677 72.0555 85.436 72.0169C85.5708 71.9952 85.7372 71.9714 85.9363 71.9406C86.1355 71.9099 86.3565 71.8745 86.6162 71.8492C86.8723 71.8177 87.1588 71.7891 87.4719 71.757C87.785 71.725 88.115 71.7076 88.4742 71.6772C88.8334 71.6468 89.213 71.6373 89.6144 71.6231C89.817 71.619 90.022 71.6053 90.2294 71.6025C90.4416 71.601 90.6538 71.5994 90.8756 71.6004C91.7608 71.5934 92.7135 71.6247 93.7181 71.6747C94.7251 71.7356 95.784 71.8152 96.8753 71.9291C97.9678 72.0382 99.0953 72.1718 100.234 72.3031C100.805 72.3694 101.378 72.4309 101.957 72.4888C102.244 72.5171 102.537 72.5418 102.825 72.5701L103.696 72.6164C104.276 72.6488 104.861 72.6667 105.442 72.7149C106.022 72.768 106.603 72.821 107.177 72.8776L107.605 72.917C107.746 72.933 107.89 72.955 108.034 72.9771C108.314 73.0138 108.598 73.0518 108.878 73.0885C109.436 73.1668 109.989 73.228 110.529 73.3328C111.073 73.4279 111.601 73.5241 112.12 73.6129C112.383 73.6555 112.635 73.7162 112.885 73.7709C113.139 73.8267 113.388 73.8813 113.632 73.9347C113.877 73.988 114.121 74.0414 114.361 74.0935C114.595 74.1443 114.831 74.1903 115.061 74.2605C115.52 74.3802 115.961 74.4949 116.38 74.6094C117.235 74.8167 117.994 75.0764 118.678 75.2857C119.017 75.3946 119.332 75.4923 119.628 75.5849C119.916 75.6908 120.185 75.7869 120.427 75.8705C121.39 76.2195 121.937 76.419 121.937 76.419C121.937 76.419 121.387 76.2292 120.42 75.8995C120.178 75.8159 119.912 75.726 119.618 75.6236C119.326 75.5371 119.004 75.4429 118.663 75.3438C117.981 75.1454 117.213 74.9038 116.365 74.7087C115.938 74.6026 115.495 74.4976 115.039 74.3839C114.812 74.3247 114.576 74.2787 114.335 74.2314C114.094 74.1842 113.853 74.1369 113.608 74.0884C113.362 74.0399 113.116 73.9914 112.861 73.9404C112.611 73.8906 112.357 73.8347 112.093 73.7969C111.571 73.7178 111.045 73.6326 110.504 73.5484C109.966 73.4545 109.411 73.403 108.855 73.3356C108.579 73.305 108.293 73.2718 108.012 73.2399C107.872 73.224 107.731 73.2081 107.586 73.1909L107.156 73.1563C106.587 73.1167 106.011 73.0697 105.433 73.0276C104.854 72.9904 104.27 72.9882 103.684 72.9594L102.803 72.9312C102.513 72.9126 102.22 72.8879 101.926 72.868C101.344 72.8198 100.769 72.768 100.195 72.7114C99.0462 72.5981 97.9282 72.4876 96.8355 72.3992C95.7488 72.3071 94.6945 72.2494 93.6983 72.2068C92.6995 72.1738 91.7576 72.1608 90.888 72.1874C90.6697 72.1925 90.4562 72.1989 90.2489 72.2017C90.0403 72.2093 89.8352 72.223 89.6424 72.2296C89.2481 72.256 88.872 72.2717 88.5225 72.3046C88.173 72.3375 87.8418 72.3596 87.5419 72.4003C87.242 72.441 86.9653 72.4722 86.7188 72.5061C86.4688 72.534 86.2465 72.5742 86.0473 72.6049C85.8518 72.6418 85.6854 72.6656 85.5506 72.6873C85.2798 72.7355 85.1401 72.756 85.1401 72.756L85.0306 72.0662L85.022 72.0795Z" fill="#B3D47B"/>
<path d="M69.9948 57.8067C69.9948 57.8067 70.1398 57.7257 70.4166 57.5757C70.6884 57.4244 71.0955 57.2102 71.5943 56.9217C72.0966 56.6394 72.7051 56.2865 73.41 55.8813C74.1148 55.476 74.9098 55.022 75.778 54.525C76.6534 54.0402 77.6032 53.5077 78.6401 52.9978C79.1483 52.7325 79.6963 52.493 80.2445 52.2329C80.807 51.9972 81.3696 51.7409 81.9671 51.5298C82.555 51.2955 83.168 51.104 83.7883 50.904C84.4156 50.7369 85.0456 50.5394 85.698 50.4149C85.862 50.3802 86.0212 50.3442 86.1852 50.3094L86.4319 50.2549L86.6796 50.2161C87.0087 50.1624 87.3378 50.1087 87.6669 50.055C88.0009 50.0025 88.3334 49.9755 88.6684 49.9388C89.0034 49.9021 89.3348 49.8593 89.666 49.8372C90.3262 49.7819 90.9911 49.7279 91.6513 49.6726C92.3114 49.6173 92.9772 49.5996 93.6336 49.5589C93.9587 49.5403 94.2886 49.5229 94.6125 49.5092C94.9351 49.5002 95.259 49.4865 95.578 49.4715C96.2184 49.4524 96.8539 49.432 97.4798 49.4091C98.7264 49.3827 99.9271 49.3546 101.074 49.3332C101.645 49.3219 102.202 49.3068 102.737 49.2964C103.274 49.2762 103.795 49.262 104.289 49.2463C104.79 49.227 105.263 49.2159 105.723 49.1963C106.173 49.174 106.609 49.1481 107.011 49.129C107.415 49.1051 107.796 49.0907 108.143 49.0675C108.491 49.0394 108.813 49.0147 109.103 48.9921C110.264 48.897 110.924 48.8417 110.924 48.8417C110.924 48.8417 110.26 48.9115 109.105 49.0443C108.814 49.0717 108.494 49.1074 108.148 49.1464C107.8 49.1744 107.42 49.2046 107.014 49.2382C106.612 49.273 106.18 49.3051 105.726 49.3418C105.273 49.3785 104.796 49.4041 104.297 49.4343C103.799 49.4645 103.279 49.4945 102.744 49.5256C102.211 49.5518 101.655 49.5827 101.08 49.6085C99.9385 49.6675 98.74 49.7271 97.4942 49.79C96.8694 49.8286 96.2397 49.866 95.5991 49.9057C95.2789 49.9256 94.9586 49.9455 94.6383 49.9653C94.3167 49.99 93.9939 50.0195 93.6676 50.043C93.0171 50.1008 92.3668 50.138 91.7065 50.2139C91.0462 50.2898 90.3871 50.3608 89.728 50.4319C89.3943 50.4637 89.0713 50.5139 88.7495 50.5592C88.4265 50.6093 88.0976 50.6424 87.7769 50.7035C87.4562 50.7646 87.1343 50.8305 86.8136 50.8916L86.5743 50.9377L86.3372 50.9948C86.1829 51.0321 86.0224 51.0729 85.862 51.1137C85.2362 51.2555 84.6291 51.464 84.0235 51.6472C83.4296 51.8644 82.8408 52.0622 82.271 52.3063C81.6965 52.5286 81.1519 52.7948 80.6184 53.038C80.0883 53.308 79.5645 53.5538 79.0695 53.8277C78.0737 54.3586 77.1504 54.9084 76.2954 55.414C75.4476 55.9318 74.6669 56.4103 73.9789 56.8302C73.2897 57.255 72.6822 57.6236 72.1796 57.9266C71.6758 58.2344 71.2868 58.4585 71.0137 58.6146C70.7454 58.772 70.6039 58.8591 70.6039 58.8591L70.0021 57.7983L69.9948 57.8067Z" fill="#B3D47B"/>
<path d="M60.3783 53.3326C60.3783 53.3326 60.4149 53.1923 60.4939 52.9288C60.5716 52.6701 60.6773 52.2844 60.8532 51.7878C61.0146 51.2874 61.2302 50.6979 61.4926 50.0276C61.6305 49.6967 61.7711 49.3356 61.9336 48.9698C62.1009 48.6053 62.2612 48.208 62.4567 47.8147C62.6486 47.4153 62.8443 47.0013 63.0679 46.5792C63.1742 46.3693 63.2928 46.1522 63.4065 45.9339C63.5251 45.7168 63.6485 45.501 63.7683 45.2791C64.0079 44.8353 64.2875 44.3967 64.5515 43.9386C64.6932 43.7121 64.8384 43.4916 64.9814 43.2603C65.123 43.0337 65.2708 42.8036 65.4283 42.576C66.0303 41.6532 66.711 40.7458 67.4197 39.8301C68.1355 38.9267 68.9046 38.0371 69.706 37.1818C70.5159 36.3338 71.3497 35.5127 72.2193 34.7527C73.0925 33.9987 73.9678 33.2763 74.8736 32.6548C74.9823 32.5746 75.0958 32.4957 75.2045 32.4156C75.3168 32.3415 75.4291 32.2674 75.5414 32.1934C75.766 32.0453 75.9905 31.8971 76.209 31.7526C76.4358 31.6154 76.6566 31.4818 76.8774 31.3482C76.9872 31.2838 77.0982 31.2146 77.208 31.1502C77.3226 31.0871 77.4311 31.0276 77.5444 30.9693C77.7675 30.8466 77.9832 30.7323 78.1954 30.612C78.4147 30.5038 78.6279 30.3992 78.8412 30.2947C79.2592 30.0781 79.6852 29.9102 80.087 29.736C80.2868 29.6434 80.4912 29.5726 80.6859 29.4994C80.8806 29.4262 81.0705 29.3517 81.2591 29.282C81.6387 29.1536 82.0023 29.0469 82.3356 28.9374C83.0201 28.749 83.623 28.5962 84.1258 28.5102C84.6252 28.3976 85.0221 28.3615 85.2917 28.3181C85.5648 28.2808 85.7093 28.2616 85.7093 28.2616C85.7093 28.2616 85.5636 28.2856 85.2988 28.3303C85.0328 28.3798 84.6309 28.4352 84.1386 28.5601C83.6417 28.663 83.0495 28.8342 82.3745 29.0457C82.0435 29.1661 81.6871 29.285 81.3147 29.4256C81.1297 29.5014 80.9446 29.5771 80.7535 29.6565C80.5623 29.7358 80.3615 29.8126 80.1653 29.9113C79.7755 30.099 79.3566 30.2792 78.9506 30.5091C78.7409 30.6198 78.5313 30.7305 78.3216 30.8412C78.1143 30.9628 77.9009 31.088 77.6875 31.2132C77.5777 31.2776 77.474 31.3384 77.3643 31.4027C77.2581 31.4732 77.1519 31.5437 77.0422 31.6081C76.8298 31.7491 76.6126 31.8888 76.3954 32.0285C76.1853 32.1804 75.9704 32.331 75.7495 32.4852C75.642 32.5605 75.5333 32.6407 75.4259 32.716C75.3159 32.801 75.212 32.8824 75.1033 32.9626C74.2373 33.6099 73.3885 34.3496 72.5576 35.1198C71.7254 35.8948 70.929 36.7307 70.1627 37.59C69.3987 38.4603 68.6793 39.3576 67.9973 40.2699C67.3299 41.186 66.6927 42.1048 66.1319 43.028C65.9854 43.2532 65.8472 43.4859 65.7152 43.7149C65.5832 43.944 65.4464 44.1718 65.3169 44.3912C65.0687 44.8482 64.8097 45.287 64.5919 45.7262C64.4782 45.9445 64.3694 46.1641 64.2582 46.3728C64.1554 46.5888 64.0539 46.7999 63.9523 47.0111C63.7457 47.4274 63.5707 47.8415 63.3958 48.235C63.2161 48.6273 63.0741 49.0139 62.9238 49.3725C62.7784 49.7324 62.6548 50.0876 62.534 50.4125C62.3055 51.0711 62.1082 51.6499 61.975 52.1214C61.8273 52.5892 61.7349 52.9835 61.6668 53.2447C61.5975 53.5108 61.561 53.6511 61.561 53.6511L60.3844 53.329L60.3783 53.3326Z" fill="#B3D47B"/>
<path d="M53.3886 52.1678C54.8145 52.405 56.5205 52.6378 58.4223 53.3089C60.3327 53.9668 62.4297 54.88 64.6258 56.067C66.8219 57.254 69.1506 58.6459 71.4972 60.306C72.6638 61.1421 73.8407 62.0377 75.0073 62.9925C75.5906 63.47 76.1762 63.9583 76.7581 64.4612C77.3267 64.9555 77.8791 65.492 78.4338 66.0395C80.6513 68.2548 82.8204 70.6952 85.012 73.188C87.1976 75.6843 89.3922 78.245 91.5843 80.8153C95.9588 85.9535 100.316 91.1182 104.45 95.9096C108.583 100.706 112.502 105.136 115.978 108.826C119.449 112.515 122.486 115.471 124.822 117.289C125.984 118.201 126.981 118.817 127.713 119.121C128.086 119.255 128.353 119.402 128.547 119.468C128.646 119.504 128.72 119.518 128.77 119.526C128.819 119.534 128.85 119.536 128.85 119.536C128.85 119.536 128.825 119.53 128.77 119.526C128.72 119.518 128.643 119.498 128.547 119.468C128.353 119.402 128.087 119.25 127.721 119.108C126.992 118.794 126.016 118.158 124.874 117.23C122.579 115.371 119.599 112.374 116.2 108.626C112.796 104.877 108.966 100.387 104.919 95.5202C100.871 90.6533 96.6153 85.4168 92.3288 80.1983C90.188 77.5897 88.0363 74.9833 85.8875 72.4449C84.8138 71.1733 83.7411 69.9175 82.6608 68.6907C81.5806 67.4638 80.4989 66.2625 79.3778 65.1128C78.8185 64.5435 78.2469 63.9813 77.6459 63.4528C77.0582 62.9329 76.4667 62.4274 75.8714 61.9366C74.6843 60.9609 73.4931 60.0409 72.3013 59.1828C69.9347 57.4607 67.5902 55.9509 65.3079 54.7776C63.0268 53.5995 60.8413 52.6891 58.8459 52.04C56.8493 51.3958 54.8422 50.7127 53.3469 50.5039C51.8709 50.3001 51.1659 50.1112 50.2914 50.0177C50.1277 50.3883 49.5129 51.4988 49.2112 51.8438C49.387 51.8431 49.8333 51.8354 50.0951 51.8417C50.8684 51.8675 51.9591 51.9244 53.3825 52.1713L53.3886 52.1678Z" fill="#B3D47B"/>
<path d="M74.2905 115.842C74.2197 117.839 73.6728 119.442 73.6728 119.442C70.8809 117.687 69.2808 113.736 69.2808 113.736C69.7709 117.506 64.4741 118.802 64.4741 118.802C65.4783 115.84 63.6545 112.074 63.6545 112.074C61.8727 116.91 59.8688 114.926 59.8688 114.926C61.471 110.72 59.1088 108.307 59.1088 108.307C61.029 112.614 54.4945 117.312 54.4945 117.312C56.371 115.523 56.1799 110.705 56.1799 110.705C54.8867 114.082 49.3042 114.968 49.3042 114.968C51.3942 113.291 50.504 104.634 50.504 104.634C49.0638 108.773 47.2703 108.915 46.2877 108.602C46.1758 109.369 46.0179 110.134 45.8057 110.869C45.5658 111.71 45.252 112.538 44.8526 113.317C52.5071 120.994 78.096 125.9 76.9362 122.798C76.7259 122.237 76.552 121.675 76.412 121.122L74.2856 115.841L74.2905 115.842Z" fill="#4E7C39"/>
<path d="M42.2372 92.9795C42.242 100.316 37.556 103.114 37.556 103.114C38.8454 95.7273 33.8059 91.4955 35.1028 93.3779C35.1554 93.4536 35.2019 93.5329 35.241 93.6206C36.1451 95.7417 33.0567 101.389 33.0567 101.389C28.6969 99.9017 29.8622 89.7395 29.8622 89.7395C28.4647 91.7723 28.8743 99.7362 25.3682 97.0145C23.9292 95.8957 26.1488 86.406 26.1488 86.406C23.622 87.8759 22.105 89.8517 21.5895 90.6007C21.4476 91.3438 21.2463 92.0765 20.9531 92.7853C20.7518 93.2804 20.525 93.7741 20.2705 94.2553C23.697 100.355 38.5164 111.046 40.5705 107.485C41.6746 105.567 43.1046 103.072 44.4772 100.382C43.4944 95.9261 42.2446 92.9711 42.2446 92.9711L42.2372 92.9795Z" fill="#4E7C39"/>
<path d="M16.9812 87.4325C18.5151 87.0573 19.9614 86.463 21.3317 85.7042C22.962 80.6171 27.2289 73.9958 27.2289 73.9958C24.5869 74.8571 19.8268 82.1816 19.8268 82.1816C19.4302 77.7958 24.0989 73.2009 24.0989 73.2009C20.7696 74.6579 19.7617 77.376 19.7617 77.376C18.3097 76.3467 22.3722 63.6901 22.3722 63.6901C20.4495 65.0023 16.2961 72.6554 16.2961 72.6554C15.0664 70.3565 19.2726 64.7215 19.2726 64.7215C16.2641 66.5928 13.1738 70.7209 13.1738 70.7209C12.8581 69.9103 13.551 68.3809 14.7829 66.5478C13.5896 68.0345 12.6405 69.5953 11.9773 71.1892C8.61449 79.3169 16.9764 87.4312 16.9764 87.4312L16.9812 87.4325Z" fill="#4E7C39"/>
</svg>
