<svg width="79" height="90" viewBox="0 0 90 103" fill="none" xmlns="http://www.w3.org/2000/svg">
<path d="M36.5491 25.1457H38.7675C40.9584 25.1428 43.0587 24.2712 44.6079 22.7221C46.1571 21.1729 47.0287 19.0725 47.0316 16.8816V16.7903H42.1972V16.8816C42.1958 17.7908 41.834 18.6623 41.1911 19.3052C40.5482 19.9481 39.6767 20.3099 38.7675 20.3113H36.5491C35.6399 20.3099 34.7684 19.9481 34.1255 19.3052C33.4826 18.6623 33.1208 17.7908 33.1194 16.8816V8.34632C33.1215 7.43761 33.4836 6.56677 34.1264 5.92446C34.7692 5.28216 35.6404 4.92073 36.5491 4.91931H38.7675C39.6767 4.92073 40.5482 5.28253 41.1911 5.92541C41.834 6.5683 42.1958 7.43983 42.1972 8.34901H47.0316C47.0287 6.15812 46.1571 4.05778 44.6079 2.50859C43.0587 0.959391 40.9584 0.0878035 38.7675 0.0849609H36.5491C34.358 0.0870941 32.2572 0.958453 30.7079 2.5078C29.1585 4.05715 28.2872 6.1579 28.285 8.34901V16.8843C28.2879 19.075 29.1596 21.175 30.7088 22.7238C32.2581 24.2726 34.3584 25.1435 36.5491 25.1457Z" fill="white"/>
<path d="M59.2611 25.1454C61.7461 25.1426 64.1286 24.1541 65.8858 22.3969C67.643 20.6397 68.6315 18.2572 68.6343 15.7722V9.4553C68.6343 8.22438 68.3919 7.00552 67.9208 5.8683C67.4498 4.73109 66.7594 3.69779 65.889 2.8274C65.0186 1.95701 63.9853 1.26658 62.8481 0.79553C61.7109 0.324479 60.492 0.0820313 59.2611 0.0820312C58.0302 0.0820313 56.8113 0.324479 55.6741 0.79553C54.5369 1.26658 53.5036 1.95701 52.6332 2.8274C51.7628 3.69779 51.0724 4.73109 50.6013 5.8683C50.1303 7.00552 49.8878 8.22438 49.8878 9.4553V15.7722C49.89 18.2575 50.8782 20.6404 52.6355 22.3977C54.3929 24.1551 56.7758 25.1433 59.2611 25.1454ZM54.7222 9.4553C54.7222 8.2515 55.2004 7.09701 56.0516 6.2458C56.9028 5.39459 58.0573 4.91638 59.2611 4.91638C60.4649 4.91638 61.6194 5.39459 62.4706 6.2458C63.3218 7.09701 63.8 8.2515 63.8 9.4553V15.7722C63.8 16.976 63.3218 18.1305 62.4706 18.9817C61.6194 19.8329 60.4649 20.3111 59.2611 20.3111C58.0573 20.3111 56.9028 19.8329 56.0516 18.9817C55.2004 18.1305 54.7222 16.976 54.7222 15.7722V9.4553Z" fill="white"/>
<path d="M80.5668 25.1292L75.9661 26.5903C74.7177 26.987 73.6523 27.817 72.9624 28.9305C72.2724 30.044 72.0033 31.3675 72.2037 32.662C72.4041 33.9564 73.0608 35.1366 74.0551 35.9893C75.0495 36.842 76.316 37.3111 77.6259 37.3118H84.9848V32.4774H77.6259C77.4705 32.4758 77.3207 32.419 77.2033 32.3172C77.0859 32.2153 77.0085 32.0751 76.985 31.9215C76.9614 31.7679 76.9932 31.6109 77.0747 31.4785C77.1562 31.3462 77.2821 31.2471 77.4298 31.199L82.0305 29.738C83.212 29.3659 84.2437 28.6261 84.9751 27.6265C85.7066 26.6269 86.0996 25.4198 86.0968 24.1811V23.6091C86.0946 22.0629 85.4793 20.5806 84.3857 19.4875C83.2921 18.3944 81.8095 17.7797 80.2633 17.7783H77.9697C76.4239 17.7805 74.9421 18.3954 73.8491 19.4885C72.756 20.5815 72.141 22.0633 72.1389 23.6091V24.3154H76.9733V23.6091C76.974 23.345 77.0792 23.092 77.2659 22.9053C77.4526 22.7186 77.7056 22.6134 77.9697 22.6127H80.2633C80.5278 22.6127 80.7815 22.7176 80.9688 22.9043C81.1561 23.0911 81.2617 23.3446 81.2624 23.6091V24.1811C81.2629 24.3927 81.1956 24.5989 81.0704 24.7695C80.9452 24.9401 80.7688 25.0661 80.5668 25.1292Z" fill="white"/>
<path d="M44.1393 36.3798C48.165 36.3935 52.0788 37.7056 55.2994 40.121C58.5199 42.5364 60.8753 45.9263 62.0157 49.7871C62.4337 51.24 63.3169 52.5155 64.5298 53.4179C65.7428 54.3204 67.2183 54.7998 68.73 54.7826H68.7676C70.6605 54.783 72.5344 55.1603 74.28 55.8924C76.0256 56.6245 77.6079 57.6967 78.9349 59.0466C80.2618 60.3966 81.3067 61.9971 82.0087 63.755C82.7107 65.513 83.0557 67.393 83.0236 69.2856C82.985 71.2715 82.5207 73.226 81.6619 75.017C83.2359 75.413 84.7403 76.047 86.1229 76.897C87.218 74.5385 87.8072 71.9769 87.8526 69.3769C87.8953 66.8427 87.4332 64.3254 86.4931 61.9716C85.5529 59.6178 84.1536 57.4748 82.3767 55.6674C80.5998 53.8599 78.4809 52.4244 76.1434 51.4443C73.806 50.4643 71.2968 49.9593 68.7623 49.959H68.7139C68.2501 49.9656 67.7969 49.8193 67.4246 49.5425C67.0522 49.2658 66.7814 48.8742 66.6539 48.4281C65.2342 43.5544 62.2717 39.2729 58.2112 36.2265C54.1507 33.1801 49.2115 31.5332 44.1353 31.5332C39.0591 31.5332 34.1198 33.1801 30.0594 36.2265C25.9989 39.2729 23.0363 43.5544 21.6166 48.4281C21.4847 48.8704 21.2117 49.2573 20.8393 49.5299C20.4668 49.8024 20.0154 49.9456 19.554 49.9375H19.511C16.975 49.9385 14.4647 50.4446 12.1264 51.4264C9.78819 52.4081 7.66891 53.8457 5.89229 55.6553C4.11566 57.4649 2.71729 59.6103 1.77877 61.9662C0.840262 64.3221 0.380414 66.8414 0.426069 69.3769C0.597957 79.7225 9.28904 88.1423 19.7876 88.1423H27.4796C27.7476 86.4562 28.2845 84.824 29.0696 83.3079H19.7876C11.905 83.3079 5.38665 77.0206 5.25773 69.2964C5.22565 67.4038 5.57066 65.5237 6.27264 63.7658C6.97462 62.0079 8.01954 60.4073 9.34646 59.0574C10.6734 57.7075 12.2558 56.6352 14.0014 55.9031C15.7469 55.171 17.6208 54.7938 19.5137 54.7933H19.562C20.0365 54.7925 20.5097 54.7449 20.9747 54.651C22.6848 56.4713 23.6482 58.8679 23.6739 61.3654L29.134 61.2096C29.0859 57.6604 27.7975 54.2399 25.4922 51.5409C25.8251 51.0036 26.0835 50.4235 26.2603 49.8166C27.3958 45.9501 29.7495 42.5536 32.971 40.1325C36.1924 37.7115 40.1095 36.3953 44.1393 36.3798Z" fill="white"/>
<path d="M78.2614 79.1341C77.165 79.9449 76.2711 80.9983 75.6495 82.2121C75.028 83.4258 74.6957 84.7669 74.6786 86.1305L69.8443 85.9935C69.8698 84.1102 70.2892 82.2531 71.0756 80.5417C71.8619 78.8302 72.9978 77.3023 74.4101 76.0562C73.3733 73.1362 71.4373 70.6201 68.8806 68.8695C66.3238 67.119 63.2778 66.2242 60.1805 66.3137C57.0831 66.4033 54.0939 67.4725 51.6425 69.3679C49.1911 71.2632 47.4038 73.8869 46.5374 76.8619C46.3436 77.5206 45.9404 78.0982 45.3889 78.5073C44.8374 78.9163 44.1676 79.1344 43.481 79.1287H43.4541C41.9119 79.1285 40.385 79.4355 38.9627 80.0319C37.5404 80.6282 36.2512 81.502 35.1703 82.6021C34.0894 83.7023 33.2385 85.0067 32.6674 86.4393C32.0962 87.8719 31.8162 89.404 31.8436 90.946C31.9484 97.3139 37.2769 102.36 43.6448 102.36H77.5524C83.9203 102.36 89.2488 97.3139 89.3563 90.946C89.4117 87.9194 88.2829 84.9907 86.2104 82.7843C84.1379 80.5778 81.2856 79.268 78.2614 79.1341Z" fill="white"/>
</svg>
