<svg width="127" height="90" viewBox="0 0 113 80" fill="none" xmlns="http://www.w3.org/2000/svg">
<path d="M88.4936 0.352425C85.562 2.01555 82.0218 3.39312 78.8759 2.86805C73.9158 2.04281 61.1311 2.09735 52.6451 5.18232C44.1592 8.26708 28.7306 17.9101 24.1025 19.4558C19.4722 20.9972 19.0876 27.1711 29.5015 28.3262C39.9174 29.4852 49.174 22.925 51.4881 21.7699C53.8024 20.6109 76.1753 24.0842 76.1753 24.0842L83.2143 25.8186L99.4429 47.7551C102.29 45.2813 107.923 40.0315 109.349 36.0417C109.867 34.5884 110.64 33.2529 111.49 32.0662L111.669 32.3119C115.489 23.7735 99.1089 -3.39396 88.4936 0.352425Z" fill="white"/>
<path d="M78.8749 29.0022L75.4645 28.658C70.9895 27.9649 58.335 26.1631 53.5828 26.1631C53.3751 26.1631 53.2091 26.1653 53.0852 26.1714C52.8941 26.2807 52.6736 26.4065 52.4574 26.5326C49.0847 28.4961 41.189 33.093 31.991 33.093C30.981 33.093 29.9728 33.0363 28.9903 32.927C27.4995 32.7612 26.1889 32.5049 25.0297 32.1814C26.128 32.6624 27.138 33.3511 28.0053 34.2352C29.3639 35.6255 30.2082 37.3307 30.5421 39.1136C31.334 38.9013 32.1549 38.7837 32.9949 38.7837C35.5694 38.7837 37.976 39.7959 39.7757 41.6355C41.5461 43.4457 42.5079 45.8396 42.4806 48.3722C42.4806 48.3973 42.4763 48.4228 42.4763 48.4479C45.0382 48.4562 47.4364 49.4684 49.2298 51.2997C51.0022 53.1098 51.964 55.5037 51.9367 58.0364C51.9262 58.9098 51.7918 59.7625 51.5567 60.5816C53.3751 60.9617 55.0404 61.8667 56.3718 63.2275C60.03 66.9676 59.9648 72.9839 56.2269 76.6422L54.3537 78.4733C54.362 78.4733 54.3727 78.4733 54.381 78.4733C57.5246 78.2464 60.1749 76.3062 60.9161 73.3829C62.197 74.3929 63.8098 74.9998 65.5676 74.9998C69.7212 74.9998 73.0896 71.6336 73.0896 67.4778C73.0896 67.0411 73.0433 66.6168 72.972 66.2008C74.2952 67.3539 76.019 68.0572 77.9112 68.0572C82.065 68.0572 85.4334 64.6888 85.4334 60.5352C86.3236 60.9067 87.3 61.1146 88.3249 61.1146C92.4785 61.1146 95.8469 57.7462 95.8469 53.5926C95.8469 50.4384 94.3035 48.3846 90.6391 44.1426L78.8749 29.0022Z" fill="white"/>
<path d="M24.699 37.4741C22.8216 35.5568 19.7473 35.523 17.8301 37.3984L10.8897 44.1918C8.97239 46.0671 8.9388 49.1414 10.8142 51.0587C12.6895 52.9759 15.7638 53.0095 17.6813 51.132L24.6237 44.3407C26.5407 42.4656 26.5743 39.3913 24.699 37.4741Z" fill="white"/>
<path d="M36.4668 44.874C34.5914 42.9546 31.5171 42.921 29.5997 44.7983L20.343 53.8535C18.4257 55.7308 18.3943 58.8051 20.2697 60.7202C22.1449 62.6396 25.2191 62.673 27.1386 60.7958L36.3931 51.7407C38.3105 49.8656 38.3441 46.7913 36.4668 44.874Z" fill="white"/>
<path d="M45.9216 54.5382C44.0465 52.621 40.9722 52.5852 39.0549 54.4628L29.7983 63.5198C27.881 65.395 27.8474 68.4693 29.7248 70.3887C31.6001 72.3038 34.6744 72.3376 36.5919 70.46L45.8486 61.4049C47.7656 59.5278 47.7968 56.4533 45.9216 54.5382Z" fill="white"/>
<path d="M53.0645 66.466C51.1871 64.5488 48.1129 64.513 46.1978 66.3903L40.7985 71.6739C38.8813 73.5491 38.8477 76.6234 40.723 78.5406C42.5982 80.4579 45.6747 80.4895 47.5919 78.6163L52.991 73.3329C54.9063 71.4576 54.9398 68.3833 53.0645 66.466Z" fill="white"/>
<path d="M21.2247 31.3837C21.9555 31.3837 22.6695 31.4762 23.3625 31.6335C17.5309 29.3971 16.565 25.3065 16.4116 23.8637C16 19.9785 18.5032 16.4403 22.6359 15.0627C24.2992 14.5084 28.6608 12.1311 32.8755 9.83382C37.3989 7.36619 42.3632 4.65947 46.6828 2.66848C41.2101 2.22565 36.0822 2.41238 33.3417 2.86808C30.3952 3.35934 27.1026 2.18137 24.2866 0.66528C13.6711 -3.08307 -2.7086 24.0842 1.1113 32.6249C1.8063 33.6685 2.43019 34.8109 2.86909 36.0417C3.51785 37.856 5.03809 39.9308 6.7708 41.8879C7.04173 41.5393 7.32946 41.199 7.65078 40.8819L14.5912 34.0887C16.3758 32.3455 18.7298 31.3837 21.2247 31.3837Z" fill="white"/>
</svg>
