<svg width="15" height="15" viewBox="0 0 15 15" fill="none" xmlns="http://www.w3.org/2000/svg">
<path d="M14.3871 7.17173C15.4578 6.36184 14.885 4.65517 13.5425 4.65517H11.1133C10.4994 4.65517 9.95713 4.25521 9.7758 3.66868L9.05165 1.32637C8.64501 0.0110567 6.78322 0.0110564 6.37657 1.32637L5.65243 3.66868C5.4711 4.25521 4.9288 4.65517 4.31489 4.65517H1.84372C0.50553 4.65517 -0.0699699 6.35274 0.992329 7.16654L3.10881 8.78792C3.57296 9.1435 3.76725 9.75008 3.59607 10.3092L2.82707 12.8207C2.42827 14.1232 3.93578 15.1704 5.01712 14.342L6.86272 12.9281C7.36508 12.5432 8.06314 12.5432 8.5655 12.9281L10.3948 14.3295C11.4777 15.159 12.9866 14.1079 12.5837 12.8046L11.8041 10.2827C11.63 9.71975 11.8271 9.10809 12.297 8.75263L14.3871 7.17173Z" fill="#FFAD33"/>
</svg>
